<svg width="16" height="16" viewBox="0 0 16 16" fill="none" xmlns="http://www.w3.org/2000/svg">
    <path d="M16 7.5C16 7.89783 15.842 8.27936 15.5607 8.56066C15.2794 8.84196 14.8978 9 14.5 9C14.1022 9 13.7206 8.84196 13.4393 8.56066C13.158 8.27936 13 7.89783 13 7.5V1.5C13 1.10218 13.158 0.720645 13.4393 0.43934C13.7206 0.158036 14.1022 3.73082e-07 14.5 3.73082e-07C14.8978 3.73082e-07 15.2794 0.158036 15.5607 0.43934C15.842 0.720645 16 1.10218 16 1.5V7.5ZM12 7.667V2.237C12.0003 1.86544 11.897 1.50116 11.7018 1.18499C11.5067 0.86882 11.2273 0.613273 10.895 0.447L10.845 0.422C10.2892 0.144217 9.67635 -0.000267964 9.055 3.73082e-07H3.64C3.17747 -0.000182829 2.72918 0.159952 2.37145 0.45314C2.01371 0.746328 1.76866 1.15444 1.678 1.608L0.478001 7.608C0.419995 7.89821 0.427118 8.19768 0.498857 8.4848C0.570596 8.77193 0.705162 9.03955 0.892851 9.26838C1.08054 9.4972 1.31667 9.68152 1.58422 9.80803C1.85176 9.93455 2.14405 10.0001 2.44 10H6V14C6 14.5304 6.21072 15.0391 6.58579 15.4142C6.96086 15.7893 7.46957 16 8 16C8.26522 16 8.51957 15.8946 8.70711 15.7071C8.89464 15.5196 9 15.2652 9 15V14.333C9 13.4675 9.28071 12.6254 9.8 11.933L11.2 10.067C11.7193 9.37462 12 8.53248 12 7.667Z" fill="#E0C6A3" />
</svg>
